<?xml version="1.0" standalone="no"?>
<!DOCTYPE svg PUBLIC "-//W3C//DTD SVG 20010904//EN"
 "http://www.w3.org/TR/2001/REC-SVG-20010904/DTD/svg10.dtd">
<svg version="1.0" xmlns="http://www.w3.org/2000/svg"
 width="512.000000pt" height="512.000000pt" viewBox="0 0 512.000000 512.000000"
 preserveAspectRatio="xMidYMid meet">

<g transform="translate(0.000000,512.000000) scale(0.100000,-0.100000)"
fill="#000000" stroke="none">
<path d="M696 5104 c-283 -51 -539 -266 -641 -539 -57 -151 -55 -67 -55 -1998
0 -1200 4 -1803 11 -1847 29 -181 103 -324 239 -461 136 -137 270 -210 449
-243 74 -14 283 -16 1856 -16 1953 0 1867 -3 2024 62 273 112 472 353 525 637
14 74 16 284 16 1865 0 1706 -1 1785 -19 1872 -30 147 -127 329 -223 421 -32
31 -33 33 -30 107 l4 76 28 0 c16 0 32 5 35 10 4 6 -22 10 -69 10 -44 0 -76
-4 -76 -10 0 -5 14 -10 30 -10 l30 0 0 -66 0 -66 -47 36 c-109 82 -230 135
-362 160 -74 14 -282 16 -1865 15 -1499 -1 -1794 -3 -1860 -15z m3728 -247
c168 -50 314 -172 385 -319 71 -150 66 -7 66 -1978 0 -1973 5 -1828 -67 -1979
-74 -155 -231 -279 -408 -322 -45 -12 -375 -14 -1845 -14 -1706 0 -1793 1
-1855 18 -212 60 -379 228 -437 438 -17 60 -18 176 -18 1864 0 1719 1 1803 18
1860 50 161 166 306 302 376 84 44 121 56 200 68 33 5 856 8 1830 7 1662 -1
1774 -2 1829 -19z"/>
<path d="M390 3525 l0 -705 405 0 405 0 0 140 0 140 -242 2 -243 3 0 140 0
140 233 3 232 2 0 140 0 140 -235 0 -236 0 3 138 3 137 243 3 242 2 0 140 0
140 -405 0 -405 0 0 -705z"/>
<path d="M1264 4153 c18 -43 151 -360 296 -705 l263 -628 126 0 126 0 293 698
c160 384 292 701 292 705 0 4 -80 7 -178 7 l-178 0 -164 -427 c-90 -236 -170
-444 -178 -462 l-14 -35 -176 460 -177 459 -182 3 -182 2 33 -77z"/>
<path d="M2720 3525 l0 -705 403 2 402 3 3 138 3 137 -246 0 -245 0 0 145 0
145 235 0 236 0 -3 138 -3 137 -232 3 -233 2 0 140 0 140 245 0 246 0 -3 138
-3 137 -402 3 -403 2 0 -705z"/>
<path d="M3710 3525 l0 -705 160 0 160 0 2 276 3 276 213 -276 213 -276 200 0
c109 0 199 3 199 6 0 3 -105 131 -232 285 -128 154 -234 283 -235 287 -2 4 18
16 45 26 29 12 72 45 113 85 81 81 109 147 117 270 11 187 -59 321 -208 396
-92 47 -159 55 -467 55 l-283 0 0 -705z m540 419 c57 -33 80 -77 80 -151 0
-130 -59 -179 -220 -185 l-75 -3 -3 184 -2 183 93 -4 c70 -3 101 -9 127 -24z"/>
<path d="M3043 2275 c-158 -44 -282 -150 -334 -282 -16 -44 -22 -81 -23 -148
-1 -83 2 -96 31 -156 59 -120 140 -185 366 -293 72 -36 149 -79 171 -98 33
-29 39 -41 43 -83 5 -62 -21 -109 -72 -131 -54 -22 -145 -28 -206 -14 -64 15
-175 68 -242 116 -26 19 -50 34 -55 34 -4 0 -44 -62 -89 -138 l-82 -137 29
-26 c44 -37 204 -116 285 -140 89 -27 302 -37 401 -20 211 37 357 163 395 342
17 81 7 215 -20 268 -51 99 -179 203 -331 271 -139 61 -250 122 -270 147 -45
57 -16 149 56 179 75 32 242 3 353 -61 24 -14 45 -24 46 -23 2 2 32 62 69 135
l66 132 -28 19 c-49 35 -109 61 -199 88 -111 32 -281 42 -360 19z"/>
<path d="M730 1733 c0 -499 -1 -530 -20 -570 -47 -106 -173 -120 -288 -33 -28
22 -53 36 -56 32 -2 -4 -27 -68 -55 -142 l-52 -134 23 -18 c107 -85 205 -118
343 -118 210 0 351 83 417 247 l23 58 3 603 3 602 -171 0 -170 0 0 -527z"/>
<path d="M1253 1723 c3 -456 7 -548 21 -601 44 -171 150 -286 316 -342 92 -32
325 -40 434 -16 157 35 279 125 337 249 55 119 59 167 59 733 l0 514 -169 0
-170 0 -4 -497 c-2 -354 -7 -508 -15 -534 -32 -95 -92 -139 -200 -147 -89 -6
-147 11 -193 57 -70 70 -72 84 -77 634 l-4 487 -170 0 -170 0 5 -537z"/>
<path d="M3740 2115 l0 -145 175 0 175 0 2 -597 3 -598 167 -3 168 -2 2 597 3
598 178 3 177 2 0 145 0 145 -525 0 -525 0 0 -145z"/>
<path d="M4940 4980 c0 -47 4 -80 10 -80 6 0 10 27 10 61 l0 62 21 -27 21 -27
24 22 24 22 0 -56 c0 -31 5 -57 10 -57 6 0 10 33 10 80 0 44 -3 80 -7 80 -3 0
-18 -14 -33 -32 l-26 -31 -23 31 c-12 18 -27 32 -32 32 -5 0 -9 -36 -9 -80z"/>
</g>
</svg>
